<?xml version="1.0" encoding="UTF-8"?>
<svg width="40px" height="42px" viewBox="0 0 40 42" version="1.1" xmlns="http://www.w3.org/2000/svg" xmlns:xlink="http://www.w3.org/1999/xlink">
    <title>bulb_icon@3x</title>
    <g id="🔣-Symbols" stroke="none" stroke-width="1" fill="none" fill-rule="evenodd">
        <g id="UI-/-News-List-/-Default-Insight" transform="translate(-60.000000, -49.000000)">
            <g id="bulb_icon" transform="translate(60.000000, 49.000000)">
                <path d="M33.843465,14.41758 C33.843465,22.03088 27.622865,28.20208 19.949715,28.20208 C12.276565,28.20208 6.055965,22.03088 6.055965,14.41758 C6.055965,6.80428 12.276565,0.63308 19.949715,0.63308 C27.622865,0.63308 33.843465,6.80428 33.843465,14.41758" id="Fill-1" fill="#FFFFFF"></path>
                <polygon id="Fill-5" fill="#FFFFFF" points="17.66145 40.22585 21.99535 40.22585 21.99535 37.28655 17.66145 37.28655"></polygon>
                <path d="M22.61722,21.337285 C23.11122,21.337285 23.51307,21.740085 23.51307,22.234085 L23.51307,27.567385 C23.51307,27.809635 23.70877,28.005335 23.95102,28.005335 L24.61792,28.005335 C26.21487,28.005335 27.51447,29.303985 27.51447,30.901885 C27.51447,31.523185 27.30832,32.124535 26.91977,32.638485 C26.80102,32.794285 26.80102,33.010885 26.91977,33.166685 C27.30832,33.680635 27.51447,34.281035 27.51447,34.903285 C27.51447,36.500235 26.21487,37.798885 24.61792,37.798885 L23.95102,37.798885 C23.70877,37.798885 23.51307,37.995535 23.51307,38.236835 C23.51307,40.201435 21.91422,41.800285 19.94962,41.800285 C17.98502,41.800285 16.38617,40.201435 16.38617,38.236835 C16.38617,37.995535 16.19047,37.798885 15.94917,37.798885 L15.28227,37.798885 C13.68437,37.798885 12.38572,36.500235 12.38572,34.903285 C12.38572,34.281035 12.59092,33.680635 12.98042,33.166685 C13.09822,33.010885 13.09822,32.794285 12.98042,32.638485 C12.59092,32.124535 12.38572,31.523185 12.38572,30.901885 C12.38572,29.303985 13.68437,28.005335 15.28227,28.005335 L15.94917,28.005335 C16.19047,28.005335 16.38617,27.809635 16.38617,27.567385 L16.38617,22.234085 C16.38617,21.740085 16.78897,21.337285 17.28202,21.337285 C17.77697,21.337285 18.17882,21.740085 18.17882,22.234085 L18.17882,27.567385 C18.17882,27.809635 18.37452,28.005335 18.61677,28.005335 L21.28342,28.005335 C21.52472,28.005335 21.72137,27.809635 21.72137,27.567385 L21.72137,22.234085 C21.72137,21.740085 22.12322,21.337285 22.61722,21.337285 Z M21.28342,37.798885 L18.61677,37.798885 C18.37452,37.798885 18.17882,37.995535 18.17882,38.236835 C18.17882,39.213435 18.97397,40.007635 19.94962,40.007635 C20.92622,40.007635 21.72137,39.213435 21.72137,38.236835 C21.72137,37.995535 21.52472,37.798885 21.28342,37.798885 Z M24.61792,33.798435 L15.28227,33.798435 C14.68377,33.798435 14.17742,34.303835 14.17742,34.903285 C14.17742,35.501785 14.68377,36.007185 15.28227,36.007185 L24.61792,36.007185 C25.21642,36.007185 25.72182,35.501785 25.72182,34.903285 C25.72182,34.303835 25.21642,33.798435 24.61792,33.798435 Z M24.61792,29.797985 L15.28227,29.797985 C14.68377,29.797985 14.17742,30.303385 14.17742,30.901885 C14.17742,31.500385 14.68377,32.006735 15.28227,32.006735 L24.61792,32.006735 C25.21642,32.006735 25.72182,31.500385 25.72182,30.901885 C25.72182,30.303385 25.21642,29.797985 24.61792,29.797985 Z M3.5625,24.388685 C3.8019,24.388685 4.02705,24.481785 4.19615,24.650885 C4.5448,25.000485 4.5448,25.568585 4.19615,25.918185 L1.52855,28.585785 C1.35945,28.753935 1.1343,28.847985 0.8949,28.847985 C0.6555,28.847985 0.4313,28.753935 0.2622,28.585785 C-0.0874,28.235235 -0.0874,27.667135 0.2622,27.318485 L2.9298,24.650885 C3.09795,24.481785 3.32405,24.388685 3.5625,24.388685 Z M36.336835,24.388685 C36.576235,24.388685 36.802335,24.481785 36.970485,24.650885 L39.638085,27.318485 C39.986735,27.667135 39.986735,28.235235 39.638085,28.585785 C39.468985,28.753935 39.243835,28.847985 39.004435,28.847985 C38.765985,28.847985 38.540835,28.753935 38.370785,28.585785 L35.703185,25.918185 C35.354535,25.568585 35.354535,25.000485 35.703185,24.650885 C35.873235,24.481785 36.097435,24.388685 36.336835,24.388685 Z M19.949335,0.00038 C28.533535,0.00038 35.516035,6.68363 35.516035,14.89828 C35.516035,18.94433 33.850685,22.72913 30.828735,25.55538 C30.662485,25.71118 30.444935,25.79668 30.216935,25.79668 C29.966135,25.79668 29.733385,25.69598 29.562385,25.51168 C29.398985,25.33783 29.313485,25.10888 29.322035,24.86948 C29.328685,24.63103 29.430335,24.40968 29.604185,24.24723 C32.261335,21.76298 33.723385,18.44273 33.723385,14.89828 C33.723385,7.67163 27.544585,1.79208 19.949335,1.79208 C12.355035,1.79208 6.175285,7.67163 6.175285,14.89828 C6.175285,18.25178 7.505285,21.44093 9.919235,23.88053 C10.087385,24.05058 10.179535,24.27573 10.177635,24.51513 C10.176685,24.75358 10.082635,24.97873 9.911635,25.14688 C9.743485,25.31408 9.519285,25.40623 9.281785,25.40623 C9.040485,25.40623 8.814385,25.31218 8.646235,25.14118 C5.896935,22.36338 4.384535,18.72678 4.384535,14.89828 C4.384535,6.68363 11.366085,0.00038 19.949335,0.00038 Z M25.287385,10.67002 C25.426085,10.67002 25.561935,10.70232 25.686385,10.76407 C26.127185,10.98447 26.307685,11.52407 26.085385,11.96582 L23.418735,17.30007 C23.265785,17.60502 22.957985,17.79502 22.616935,17.79502 C22.275885,17.79502 21.968085,17.60502 21.815135,17.30007 L20.340735,14.35127 C20.266635,14.20307 20.115585,14.10997 19.949335,14.10997 C19.784985,14.10997 19.632035,14.20307 19.557935,14.35127 L18.084485,17.30007 C17.922985,17.62117 17.564835,17.73612 17.282685,17.73612 C17.001485,17.73612 16.642385,17.62117 16.480885,17.30007 L13.813285,11.96582 C13.592885,11.52407 13.772435,10.98447 14.214185,10.76312 C14.338635,10.70232 14.473535,10.67002 14.612235,10.67002 C14.957085,10.67002 15.264885,10.86002 15.416885,11.16497 L16.891285,14.11282 C16.965385,14.26102 17.116435,14.35412 17.282685,14.35412 C17.448935,14.35412 17.599985,14.26102 17.674085,14.11282 L19.148485,11.16402 C19.309985,10.84292 19.668135,10.72797 19.949335,10.72797 C20.231485,10.72797 20.589635,10.84292 20.751135,11.16497 L22.225535,14.11282 C22.299635,14.26102 22.451635,14.35412 22.616935,14.35412 C22.783185,14.35412 22.934235,14.26102 23.008335,14.11282 L24.483685,11.16402 C24.635685,10.86002 24.944435,10.67002 25.287385,10.67002 Z M39.004815,0.95 C39.244215,0.95 39.469365,1.0431 39.638465,1.21315 C39.987115,1.5618 39.987115,2.1299 39.638465,2.4795 L36.970865,5.1471 C36.801765,5.3162 36.576615,5.4093 36.337215,5.4093 C36.097815,5.4093 35.873615,5.3162 35.703565,5.1471 C35.354915,4.7975 35.354915,4.22845 35.703565,3.8798 L38.371165,1.21315 C38.540265,1.0431 38.766365,0.95 39.004815,0.95 Z M0.894615,0.95 C1.134015,0.95 1.360115,1.0431 1.528265,1.21315 L4.195865,3.8798 C4.544515,4.22845 4.544515,4.7975 4.195865,5.1471 C4.026765,5.3162 3.801615,5.4093 3.562215,5.4093 C3.323765,5.4093 3.098615,5.3162 2.929515,5.1471 L0.261915,2.4795 C-0.087685,2.1299 -0.087685,1.5618 0.261915,1.21315 C0.431015,1.0431 0.655215,0.95 0.894615,0.95 Z" id="Combined-Shape" fill="#152A6D"></path>
            </g>
        </g>
    </g>
</svg>