<?xml version="1.0" encoding="UTF-8"?>
<svg width="178px" height="21px" viewBox="0 0 178 21" version="1.1" xmlns="http://www.w3.org/2000/svg" xmlns:xlink="http://www.w3.org/1999/xlink">
    <title>9E8555CA-1BF8-4712-B132-B27276AB1881@2x</title>
    <g id="📄-Pages" stroke="none" stroke-width="1" fill="none" fill-rule="evenodd">
        <g id="v3-|-Homepage-|-Listing" transform="translate(-165.000000, -3142.000000)">
            <rect fill="#FFFFFF" x="0" y="0" width="1440" height="3627"></rect>
            <g id="UI-/-CTA-+-FOOTER" transform="translate(0.000000, 2504.000000)">
                <g id="UI-/-Footer" transform="translate(0.000000, 583.000000)">
                    <rect id="box-navyblue" fill="#00132F" x="10" y="0" width="1420" height="532"></rect>
                    <g id="logo-footer" transform="translate(165.000000, 55.000000)">
                        <path d="M38.0689152,5.6717856 C42.195889,5.6717856 45.5311191,8.92210176 45.5311191,13.1056848 C45.5311191,17.2888747 42.195889,20.5391909 38.0689152,20.5391909 C33.9423346,20.5391909 30.6354092,17.2888747 30.6354092,13.1056848 C30.6354092,8.92210176 33.9423346,5.6717856 38.0689152,5.6717856 Z M73.5669829,2.08240344 L73.5669829,6.03915624 L77.3263895,6.03915624 L77.3263895,8.41360104 L73.5669829,8.41360104 L73.5669829,16.0731511 C73.5669829,18.2215519 74.8108146,18.0804218 77.3263895,17.9672033 L77.3263895,20.1718202 C73.0865903,20.7371268 71.1080173,19.6065137 71.1080173,16.0731511 L71.1080173,8.41360104 L68.3097892,8.41360104 L68.3097892,6.03915624 L71.1080173,6.03915624 L71.1080173,2.81714472 L73.5669829,2.08240344 Z M29.7881963,5.78500416 L29.7881963,8.35718832 C27.6681001,8.2722744 25.3789623,9.34627824 25.3789623,12.6815083 L25.3789623,20.1720168 L22.9196036,20.1720168 L22.9196036,6.03895968 L25.3789623,6.03895968 L25.3789623,8.4137976 C26.2831383,6.43483152 28.0077558,5.78500416 29.7881963,5.78500416 Z M49.2607665,6.03915624 L52.3699525,16.7799809 L55.7051826,6.03915624 L58.0796274,6.03915624 L61.4148575,16.8082855 L64.5240436,6.03915624 L67.0962277,6.03915624 L62.7149053,20.1718202 L60.1993305,20.1718202 L56.892405,9.714042 L53.5854796,20.1718202 L51.0699047,20.1718202 L46.6885823,6.03915624 L49.2607665,6.03915624 Z M82.6957404,0.386051328 L82.6957404,8.07429917 C83.7414396,6.40668413 85.2962292,5.67154973 87.2748022,5.67154973 C90.5817276,5.67154973 92.7580399,7.87655981 92.7580399,11.4944432 L92.7580399,20.1717809 L90.2990743,20.1717809 L90.2990743,11.6355732 C90.2990743,9.31813085 88.9707218,8.01768989 86.7940164,8.01768989 C84.5327902,8.01768989 82.6957404,9.34604237 82.6957404,12.6816656 L82.6957404,20.1717809 L80.2363817,20.1717809 L80.2363817,0.386051328 L82.6957404,0.386051328 Z M38.0689152,8.07414192 C35.2706871,8.07414192 33.0943748,10.2504542 33.0943748,13.1056848 C33.0943748,15.9605222 35.2706871,18.1368346 38.0689152,18.1368346 C40.895448,18.1368346 43.0721535,15.9605222 43.0721535,13.1056848 C43.0721535,10.2504542 40.895448,8.07414192 38.0689152,8.07414192 Z" id="Combined-Shape" fill="#34FFB2"></path>
                        <path d="M95.3288875,15.6774758 L97.5901137,14.377428 C98.2965504,16.5537403 99.99247,17.9670067 102.875612,17.9670067 C105.67384,17.9670067 107.058802,16.6952635 107.058802,14.914823 C107.058802,12.8796408 105.306273,12.2011157 102.395219,11.2965466 C99.2294241,10.279152 96.1768473,9.28966896 96.1768473,5.61517632 C96.1768473,2.05390224 99.088294,0.01872 102.395219,0.01872 C105.645536,0.01872 107.991676,1.85616288 109.093984,4.34343312 L106.889367,5.61517632 C106.182538,3.91925664 104.797576,2.56259952 102.395219,2.56259952 C100.275516,2.56259952 98.8056408,3.69321264 98.8056408,5.50195776 C98.8056408,7.33940064 100.190603,8.01792576 102.960526,8.89379712 C106.408975,10.0244102 109.659291,11.0421979 109.659291,14.8578206 C109.659291,18.3345739 106.861063,20.5391909 102.819003,20.5391909 C99.0599894,20.5391909 96.3745867,18.6455318 95.3288875,15.6774758" id="Fill-11" fill="#FFFFFF"></path>
                        <path d="M116.017378,8.41360104 L116.017378,16.0731511 C116.017378,18.2215519 117.26121,18.0804218 119.776784,17.9672033 L119.776784,20.1718202 C115.536592,20.7371268 113.558412,19.6065137 113.558412,16.0731511 L113.558412,8.41360104 L110.760184,8.41360104 L110.760184,6.03915624 L113.558412,6.03915624 L113.558412,2.81714472 L116.017378,2.08240344 L116.017378,6.03915624 L119.776784,6.03915624 L119.776784,8.41360104 L116.017378,8.41360104 Z" id="Fill-14" fill="#FFFFFF"></path>
                        <path d="M134.982352,6.03915624 L134.982352,20.1718202 L132.523386,20.1718202 L132.523386,18.136638 C131.477687,19.8046462 129.922897,20.5393874 127.944717,20.5393874 C124.637792,20.5393874 122.460693,18.3343774 122.460693,14.716494 L122.460693,6.03915624 L124.920052,6.03915624 L124.920052,14.5753639 C124.920052,16.8928063 126.248404,18.1932473 128.424717,18.1932473 C130.685943,18.1932473 132.523386,16.8648948 132.523386,13.5296647 L132.523386,6.03915624 L134.982352,6.03915624 Z" id="Fill-16" fill="#FFFFFF"></path>
                        <path d="M150.413845,13.1056848 C150.413845,10.2225427 148.237532,8.0462304 145.382695,8.0462304 C142.556162,8.0462304 140.37985,10.2225427 140.37985,13.1056848 C140.37985,15.9884338 142.556162,18.1647461 145.382695,18.1647461 C148.237532,18.1647461 150.413845,15.9884338 150.413845,13.1056848 L150.413845,13.1056848 Z M152.87281,0.3862872 L152.87281,20.1720168 L150.413845,20.1720168 L150.413845,17.7409627 C149.283232,19.465187 147.474093,20.5391909 145.071737,20.5391909 C141.142896,20.5391909 137.920884,17.2888747 137.920884,13.1056848 C137.920884,8.92210176 141.142896,5.6717856 145.071737,5.6717856 C147.474093,5.6717856 149.283232,6.74578944 150.413845,8.47001376 L150.413845,0.3862872 L152.87281,0.3862872 Z" id="Fill-18" fill="#FFFFFF"></path>
                        <path d="M156.602497,20.1717809 L159.061856,20.1717809 L159.061856,6.03911693 L156.602497,6.03911693 L156.602497,20.1717809 Z M156.178714,1.82762237 C156.178714,0.923053248 156.913455,0.160007328 157.846329,0.160007328 C158.750898,0.160007328 159.485639,0.923053248 159.485639,1.82762237 C159.485639,2.73219149 158.750898,3.46693277 157.846329,3.46693277 C156.913455,3.46693277 156.178714,2.73219149 156.178714,1.82762237 L156.178714,1.82762237 Z" id="Fill-20" fill="#FFFFFF"></path>
                        <path d="M174.465201,13.1056848 C174.465201,10.2504542 172.288889,8.07414192 169.461963,8.07414192 C166.663735,8.07414192 164.487423,10.2504542 164.487423,13.1056848 C164.487423,15.9605222 166.663735,18.1368346 169.461963,18.1368346 C172.288889,18.1368346 174.465201,15.9605222 174.465201,13.1056848 M162.028457,13.1056848 C162.028457,8.92210176 165.335383,5.6717856 169.461963,5.6717856 C173.588937,5.6717856 176.924167,8.92210176 176.924167,13.1056848 C176.924167,17.2888747 173.588937,20.5391909 169.461963,20.5391909 C165.335383,20.5391909 162.028457,17.2888747 162.028457,13.1056848" id="Fill-22" fill="#FFFFFF"></path>
                        <path d="M10.2744664,0.081265392 C13.1462971,0.081265392 15.8300074,1.26779224 17.7563118,3.31360325 L17.9150717,3.48606957 L16.0156659,5.19537161 C14.5591277,3.57684138 12.4938571,2.63654539 10.2744664,2.63654539 C6.01139164,2.63654539 2.55516206,6.09287928 2.55516206,10.3562428 C2.55516206,12.5758601 3.49524163,14.6405835 5.11403336,16.0966967 C5.81448145,16.7270999 6.6249913,17.2253957 7.50558256,17.5641877 C8.14256222,17.8089299 8.81025862,17.9681545 9.49602418,18.0368004 L9.7617312,18.0584352 L14.9948821,12.8252654 L9.50714294,12.8258227 L9.50714294,10.2705427 L19.3573074,10.2705427 L19.3573074,20.1207072 L16.8020274,20.1207072 L16.8018821,14.6322654 L10.8036822,20.6308272 L10.2744664,20.6308272 C9.00057576,20.6308272 7.75611495,20.3978521 6.58857688,19.9492571 C5.41509713,19.4977816 4.33640672,18.8346103 3.40490039,17.9962546 C1.25313124,16.060725 -0.000117936,13.3081783 -0.000117936,10.3562428 C-0.000117936,4.68165437 4.6001322,0.081265392 10.2744664,0.081265392 Z" id="Combined-Shape" fill="#34FFB2" fill-rule="nonzero"></path>
                    </g>
                </g>
            </g>
        </g>
    </g>
</svg>