<?xml version="1.0" encoding="UTF-8"?>
<svg width="64px" height="64px" viewBox="0 0 64 64" version="1.1" xmlns="http://www.w3.org/2000/svg" xmlns:xlink="http://www.w3.org/1999/xlink">
    <title>645F2067-2451-4EAF-A6AE-0F11DF151E6D</title>
    <defs>
        <polygon id="path-1" points="0 63.9985 64 63.9985 64 -0.0005 0 -0.0005"></polygon>
    </defs>
    <g id="📄-Pages" stroke="none" stroke-width="1" fill="none" fill-rule="evenodd">
        <g id="v3-|-Guidance-|-Detail" transform="translate(-925.000000, -763.000000)">
            <g id="ValueProps" transform="translate(165.000000, 763.000000)">
                <g id="icon-3" transform="translate(760.000000, 0.000000)">
                    <path d="M42,42.9985 C42,54.5965 32.598,63.9985 21,63.9985 C9.402,63.9985 0,54.5965 0,42.9985 C0,31.4005 9.402,21.9985 21,21.9985 C32.598,21.9985 42,31.4005 42,42.9985" id="Fill-1" fill="#00EEFF"></path>
                    <path d="M59.7598,20.6176 C58.8598,18.4266 57.6998,16.3466 56.3048,14.4226 C55.5938,14.8016 54.8118,14.9986 53.9998,14.9986 C51.2428,14.9986 48.9998,12.7556 48.9998,9.9986 C48.9998,9.1866 49.1968,8.4046 49.5758,7.6936 C47.9068,6.4836 46.1208,5.4506 44.2458,4.6106 C43.3508,6.0716 41.7518,6.9986 39.9998,6.9986 C37.2958,6.9986 35.0858,4.8406 35.0028,2.1556 C32.9598,1.9476 31.0408,1.9476 28.9978,2.1556 C28.9148,4.8406 26.7048,6.9986 23.9998,6.9986 C22.2488,6.9986 20.6498,6.0716 19.7538,4.6106 C17.8798,5.4506 16.0928,6.4836 14.4238,7.6936 C14.8028,8.4046 14.9998,9.1866 14.9998,9.9986 C14.9998,12.7556 12.7568,14.9986 9.9998,14.9986 C9.1878,14.9986 8.4058,14.8016 7.6948,14.4226 C6.3008,16.3466 5.1398,18.4266 4.2398,20.6176 L2.3908,19.8576 C3.4758,17.2156 4.9148,14.7246 6.6698,12.4546 L7.3018,11.6366 L8.0988,12.2956 C8.4858,12.6166 9.1308,12.9986 9.9998,12.9986 C11.6548,12.9986 12.9998,11.6526 12.9998,9.9986 C12.9998,9.1286 12.6178,8.4846 12.2978,8.0966 L11.6378,7.3006 L12.4558,6.6676 C14.7268,4.9136 17.2178,3.4736 19.8598,2.3886 L20.8348,1.9886 L21.1828,2.9836 C21.6048,4.1886 22.7368,4.9986 23.9998,4.9986 C25.6548,4.9986 26.9998,3.6526 26.9998,1.9986 C26.9998,1.8376 26.9818,1.6596 26.9438,1.4576 L26.7498,0.4206 L27.7958,0.2826 C30.6558,-0.0944 33.3438,-0.0944 36.2038,0.2826 L37.2498,0.4206 L37.0558,1.4576 C37.0188,1.6596 36.9998,1.8376 36.9998,1.9986 C36.9998,3.6526 38.3458,4.9986 39.9998,4.9986 C41.2628,4.9986 42.3948,4.1886 42.8168,2.9836 L43.1648,1.9886 L44.1408,2.3886 C46.7828,3.4736 49.2738,4.9136 51.5438,6.6676 L52.3628,7.3006 L51.7028,8.0966 C51.3828,8.4846 50.9998,9.1286 50.9998,9.9986 C50.9998,11.6526 52.3458,12.9986 53.9998,12.9986 C54.8698,12.9986 55.5138,12.6166 55.9018,12.2956 L56.6978,11.6366 L57.3308,12.4546 C59.0848,14.7246 60.5248,17.2156 61.6098,19.8576 L59.7598,20.6176 Z" id="Fill-3" fill="#363F40"></path>
                    <path d="M32,63.9985 C30.641,63.9985 29.226,63.9025 27.796,63.7145 L26.75,63.5765 L26.944,62.5395 C26.981,62.3365 27,62.1595 27,61.9985 C27,60.3445 25.654,58.9985 24,58.9985 C22.737,58.9985 21.605,59.8085 21.183,61.0135 L20.835,62.0085 L19.859,61.6075 C17.217,60.5225 14.727,59.0835 12.456,57.3295 L11.638,56.6965 L12.297,55.8995 C12.618,55.5125 13,54.8685 13,53.9985 C13,52.3445 11.654,50.9985 10,50.9985 C9.13,50.9985 8.486,51.3805 8.099,51.7015 L7.302,52.3605 L6.669,51.5425 C4.915,49.2715 3.476,46.7815 2.391,44.1395 L4.24,43.3795 C5.14,45.5705 6.3,47.6505 7.695,49.5745 C8.406,49.1955 9.188,48.9985 10,48.9985 C12.757,48.9985 15,51.2415 15,53.9985 C15,54.8105 14.803,55.5925 14.424,56.3035 C16.093,57.5135 17.879,58.5465 19.754,59.3865 C20.649,57.9255 22.249,56.9985 24,56.9985 C26.705,56.9985 28.915,59.1565 28.998,61.8415 C31.041,62.0495 32.959,62.0495 35.002,61.8415 C35.085,59.1565 37.295,56.9985 40,56.9985 C41.751,56.9985 43.351,57.9255 44.246,59.3865 C46.121,58.5465 47.907,57.5135 49.576,56.3035 C49.197,55.5925 49,54.8105 49,53.9985 C49,51.2415 51.243,48.9985 54,48.9985 C54.812,48.9985 55.594,49.1955 56.305,49.5745 C57.7,47.6505 58.86,45.5705 59.76,43.3795 L61.609,44.1395 C60.524,46.7815 59.085,49.2715 57.331,51.5425 L56.698,52.3605 L55.901,51.7015 C55.514,51.3805 54.87,50.9985 54,50.9985 C52.346,50.9985 51,52.3445 51,53.9985 C51,54.8685 51.382,55.5125 51.703,55.8995 L52.362,56.6965 L51.544,57.3295 C49.273,59.0835 46.783,60.5225 44.141,61.6075 L43.165,62.0085 L42.817,61.0135 C42.395,59.8085 41.263,58.9985 40,58.9985 C38.346,58.9985 37,60.3445 37,61.9985 C37,62.1595 37.019,62.3365 37.056,62.5395 L37.25,63.5765 L36.204,63.7145 C34.774,63.9025 33.359,63.9985 32,63.9985" id="Fill-5" fill="#363F40"></path>
                    <path d="M2.3218,31.998 C5.0278,35.04 17.4178,47.998 31.9998,47.998 C46.5978,47.998 58.9748,35.041 61.6778,31.999 C58.9728,28.957 46.5818,15.998 31.9998,15.998 C17.4018,15.998 5.0258,28.956 2.3218,31.998 M31.9998,49.998 C14.6048,49.998 0.8038,33.34 0.2258,32.631 C-0.0752,32.263 -0.0752,31.734 0.2258,31.366 C0.8038,30.657 14.6048,13.998 31.9998,13.998 C49.3958,13.998 63.1958,30.657 63.7748,31.366 C64.0748,31.734 64.0748,32.263 63.7748,32.631 C63.1958,33.34 49.3958,49.998 31.9998,49.998" id="Fill-7" fill="#363F40"></path>
                    <path d="M32,15.9985 C23.178,15.9985 16,23.1765 16,31.9985 C16,40.8205 23.178,47.9985 32,47.9985 C40.822,47.9985 48,40.8205 48,31.9985 C48,23.1765 40.822,15.9985 32,15.9985 M32,49.9985 C22.075,49.9985 14,41.9235 14,31.9985 C14,22.0735 22.075,13.9985 32,13.9985 C41.925,13.9985 50,22.0735 50,31.9985 C50,41.9235 41.925,49.9985 32,49.9985" id="Fill-9" fill="#363F40"></path>
                    <path d="M32,21.9985 C26.486,21.9985 22,26.4845 22,31.9985 C22,37.5125 26.486,41.9985 32,41.9985 C37.514,41.9985 42,37.5125 42,31.9985 C42,26.4845 37.514,21.9985 32,21.9985 M32,43.9985 C25.383,43.9985 20,38.6155 20,31.9985 C20,25.3815 25.383,19.9985 32,19.9985 C38.617,19.9985 44,25.3815 44,31.9985 C44,38.6155 38.617,43.9985 32,43.9985" id="Fill-11" fill="#363F40"></path>
                    <path d="M27,31.9985 L25,31.9985 C25,28.1385 28.14,24.9985 32,24.9985 L32,26.9985 C29.243,26.9985 27,29.2415 27,31.9985" id="Fill-13" fill="#363F40"></path>
                    <mask id="mask-2" fill="white">
                        <use xlink:href="#path-1"></use>
                    </mask>
                    <g id="Clip-16"></g>
                    <polygon id="Fill-15" fill="#363F40" mask="url(#mask-2)" points="31 8.9985 33 8.9985 33 6.9985 31 6.9985"></polygon>
                    <polygon id="Fill-17" fill="#363F40" mask="url(#mask-2)" points="43 11.9985 45 11.9985 45 9.9985 43 9.9985"></polygon>
                    <polygon id="Fill-18" fill="#363F40" mask="url(#mask-2)" points="19 11.9985 21 11.9985 21 9.9985 19 9.9985"></polygon>
                    <polygon id="Fill-19" fill="#363F40" mask="url(#mask-2)" points="31 56.9985 33 56.9985 33 54.9985 31 54.9985"></polygon>
                    <polygon id="Fill-20" fill="#363F40" mask="url(#mask-2)" points="43 53.9985 45 53.9985 45 51.9985 43 51.9985"></polygon>
                    <polygon id="Fill-21" fill="#363F40" mask="url(#mask-2)" points="19 53.9985 21 53.9985 21 51.9985 19 51.9985"></polygon>
                </g>
            </g>
        </g>
    </g>
</svg>