<?xml version="1.0" encoding="UTF-8"?>
<svg width="24px" height="24px" viewBox="0 0 24 24" version="1.1" xmlns="http://www.w3.org/2000/svg" xmlns:xlink="http://www.w3.org/1999/xlink">
    <title>icon-fb_white</title>
    <g id="Page-1" stroke="none" stroke-width="1" fill="none" fill-rule="evenodd">
        <g id="Facebook@2x" transform="translate(-149.000000, -4744.000000)" fill="#FFFFFF" fill-rule="nonzero">
            <g id="icon-fb_white" transform="translate(149.000000, 4744.000000)">
                <path d="M12,0 C5.37257813,0 0,5.40542771 0,12.0733717 C0,18.0995405 4.38822656,23.0943321 10.125,24 L10.125,15.5633307 L7.078125,15.5633307 L7.078125,12.0733717 L10.125,12.0733717 L10.125,9.41345698 C10.125,6.3875682 11.9165156,4.71616081 14.6575781,4.71616081 C15.9704766,4.71616081 17.34375,4.95196885 17.34375,4.95196885 L17.34375,7.92315016 L15.8305781,7.92315016 C14.3398828,7.92315016 13.875,8.85381375 13.875,9.80860051 L13.875,12.0733717 L17.203125,12.0733717 L16.6710937,15.5633307 L13.875,15.5633307 L13.875,24 C19.6117734,23.0943321 24,18.0995405 24,12.0733717 C24,5.40542771 18.6274219,0 12,0 Z" id="Path"></path>
            </g>
        </g>
    </g>
</svg>