<?xml version="1.0" encoding="UTF-8"?>
<svg width="24px" height="20px" viewBox="0 0 24 20" version="1.1" xmlns="http://www.w3.org/2000/svg" xmlns:xlink="http://www.w3.org/1999/xlink">
    <title>icon-twitter_white</title>
    <g id="Page-1" stroke="none" stroke-width="1" fill="none" fill-rule="evenodd">
        <g id="Twitter-2@2x" transform="translate(-80.000000, -4746.000000)" fill="#FFFFFF" fill-rule="nonzero">
            <g id="icon-twitter_white" transform="translate(80.375000, 4746.633026)">
                <path d="M7.30342137,18.9051621 C16.0768307,18.9051621 20.877551,11.6296519 20.877551,5.33103242 C20.877551,5.12635054 20.877551,4.92166867 20.8682473,4.7169868 C21.7986194,4.04711885 22.6080432,3.2004802 23.25,2.24219688 C22.3940576,2.62364946 21.4729892,2.87484994 20.5054022,2.99579832 C21.4915966,2.40966387 22.2451981,1.469988 22.6080432,0.35354142 C21.6869748,0.90246099 20.6635654,1.29321729 19.57503,1.50720289 C18.7004802,0.57683074 17.4630852,4.4408921e-16 16.0954382,4.4408921e-16 C13.462485,4.4408921e-16 11.3226291,2.13985595 11.3226291,4.77280913 C11.3226291,5.14495799 11.3691477,5.50780313 11.4435774,5.86134454 C7.48019208,5.66596639 3.96338535,3.75870349 1.60954382,0.87454982 C1.20018007,1.58163266 0.96758703,2.40036015 0.96758703,3.27490997 C0.96758703,4.93097239 1.81422569,6.39165667 3.08883553,7.24759904 C2.30732293,7.21968788 1.57232893,7.00570228 0.93037215,6.65216087 C0.93037215,6.67076831 0.93037215,6.68937575 0.93037215,6.71728692 C0.93037215,9.02460988 2.57713085,10.9597839 4.75420168,11.3970588 C4.35414166,11.5087035 3.93547419,11.5645258 3.49819928,11.5645258 C3.19117647,11.5645258 2.89345738,11.5366147 2.60504202,11.4807923 C3.20978391,13.3787515 4.977491,14.7557023 7.06152461,14.7929172 C5.42406963,16.0768308 3.36794718,16.8397359 1.13505402,16.8397359 C0.75360144,16.8397359 0.37214886,16.8211285 0,16.7746099 C2.10264106,18.1143458 4.61464586,18.9051621 7.30342137,18.9051621" id="Icon"></path>
            </g>
        </g>
    </g>
</svg>