<?xml version="1.0" encoding="UTF-8"?>
<svg width="64px" height="64px" viewBox="0 0 64 64" version="1.1" xmlns="http://www.w3.org/2000/svg" xmlns:xlink="http://www.w3.org/1999/xlink">
    <title>EE45ACF3-6D7E-4B7B-872B-A668110BF210</title>
    <defs>
        <polygon id="path-1" points="0 0.553 12.707 0.553 12.707 14 0 14"></polygon>
        <polygon id="path-3" points="0.293 0.553 13 0.553 13 14 0.293 14"></polygon>
    </defs>
    <g id="📄-Pages" stroke="none" stroke-width="1" fill="none" fill-rule="evenodd">
        <g id="v3-|-Guidance-|-Detail" transform="translate(-545.000000, -763.000000)">
            <g id="ValueProps" transform="translate(165.000000, 763.000000)">
                <g id="icon-2" transform="translate(380.000000, 0.000000)">
                    <path d="M64,21 C64,32.598 54.599,42 43,42 C31.401,42 22,32.598 22,21 C22,9.402 31.401,0 43,0 C54.599,0 64,9.402 64,21" id="Fill-1" fill="#00EEFF"></path>
                    <path d="M32,64 C14.355,64 0,49.645 0,32 C0,14.355 14.355,0 32,0 C35.907,0 39.726,0.696 43.35,2.071 L42.641,3.94 C39.244,2.653 35.664,2 32,2 C15.458,2 2,15.458 2,32 C2,48.542 15.458,62 32,62 C48.542,62 62,48.542 62,32 C62,28.334 61.346,24.753 60.057,21.356 L61.927,20.647 C63.303,24.271 64,28.091 64,32 C64,49.645 49.645,64 32,64" id="Fill-3" fill="#363F40"></path>
                    <polygon id="Fill-5" fill="#363F40" points="32.707 32.707 31.293 31.293 62.293 0.293 63.707 1.707"></polygon>
                    <polygon id="Fill-7" fill="#363F40" points="64 8 56 8 56 0 58 0 58 6 64 6"></polygon>
                    <polygon id="Fill-9" fill="#363F40" points="60 12 52 12 52 4 54 4 54 10 60 10"></polygon>
                    <path d="M32,8 C18.767,8 8,18.767 8,32 C8,45.233 18.767,56 32,56 C45.233,56 56,45.233 56,32 C56,18.767 45.233,8 32,8 M32,58 C17.664,58 6,46.337 6,32 C6,17.663 17.664,6 32,6 C46.336,6 58,17.663 58,32 C58,46.337 46.336,58 32,58" id="Fill-11" fill="#363F40"></path>
                    <path d="M32,14 C22.075,14 14,22.075 14,32 C14,41.925 22.075,50 32,50 C41.925,50 50,41.925 50,32 C50,22.075 41.925,14 32,14 M32,52 C20.972,52 12,43.028 12,32 C12,20.972 20.972,12 32,12 C43.028,12 52,20.972 52,32 C52,43.028 43.028,52 32,52" id="Fill-13" fill="#363F40"></path>
                    <path d="M32,20 C25.383,20 20,25.383 20,32 C20,38.617 25.383,44 32,44 C38.617,44 44,38.617 44,32 C44,25.383 38.617,20 32,20 M32,46 C24.28,46 18,39.72 18,32 C18,24.28 24.28,18 32,18 C39.72,18 46,24.28 46,32 C46,39.72 39.72,46 32,46" id="Fill-15" fill="#363F40"></path>
                    <path d="M32,26 C28.691,26 26,28.691 26,32 C26,35.309 28.691,38 32,38 C35.309,38 38,35.309 38,32 C38,28.691 35.309,26 32,26 M32,40 C27.589,40 24,36.411 24,32 C24,27.589 27.589,24 32,24 C36.411,24 40,27.589 40,32 C40,36.411 36.411,40 32,40" id="Fill-17" fill="#363F40"></path>
                    <path d="M32,34 C30.897,34 30,33.103 30,32 C30,30.897 30.897,30 32,30 C33.103,30 34,30.897 34,32 C34,33.103 33.103,34 32,34" id="Fill-19" fill="#363F40"></path>
                    <g id="Group-23" transform="translate(0.000000, 50.000000)">
                        <mask id="mask-2" fill="white">
                            <use xlink:href="#path-1"></use>
                        </mask>
                        <g id="Clip-22"></g>
                        <path d="M4.99999589,14 L0.999995891,14 C0.653,14 0.332,13.82 0.149,13.525 C-0.033,13.23 -0.049,12.862 0.105,12.553 L6.105,0.553 L7.895,1.447 L2.618,12 L4.586,12 L11.293,5.293 L12.707,6.707 L5.707,13.707 C5.52,13.895 5.265,14 4.99999589,14" id="Fill-21" fill="#363F40" mask="url(#mask-2)"></path>
                    </g>
                    <g id="Group-26" transform="translate(51.000000, 50.000000)">
                        <mask id="mask-4" fill="white">
                            <use xlink:href="#path-3"></use>
                        </mask>
                        <g id="Clip-25"></g>
                        <path d="M12,14 L8,14 C7.735,14 7.48,13.895 7.293,13.707 L0.293,6.707 L1.707,5.293 L8.414,12 L10.382,12 L5.105,1.447 L6.895,0.553 L12.895,12.553 C13.049,12.862 13.033,13.23 12.851,13.525 C12.668,13.82 12.347,14 12,14" id="Fill-24" fill="#363F40" mask="url(#mask-4)"></path>
                    </g>
                </g>
            </g>
        </g>
    </g>
</svg>