<?xml version="1.0" encoding="UTF-8"?>
<svg width="21px" height="21px" viewBox="0 0 21 21" version="1.1" xmlns="http://www.w3.org/2000/svg" xmlns:xlink="http://www.w3.org/1999/xlink">
    <title>icon-linkedin</title>
    <g id="Page-1" stroke="none" stroke-width="1" fill="none" fill-rule="evenodd">
        <g id="Linkedin@2x" transform="translate(-218.000000, -4746.000000)" fill="#00D584" fill-rule="nonzero">
            <g id="Icon" transform="translate(218.250000, 4746.250000)">
                <path d="M20.25,20.25 L16.0550877,20.25 L16.0550877,13.671112 C16.0550877,12.1027605 16.0267968,10.0856337 13.8735447,10.0856337 C11.6920017,10.0856337 11.3587977,11.7957037 11.3587977,13.5593118 L11.3587977,20.25 L7.16702887,20.25 L7.16702887,6.72375583 L11.1874806,6.72375583 L11.1874806,8.572395 L11.2456341,8.572395 C11.806737,7.50950622 13.1741307,6.38835537 15.2157909,6.38835537 C19.4657133,6.38835537 20.25,9.1880832 20.25,12.8318235 L20.25,20.25 Z M2.43616113,4.87669129 C1.08762807,4.87669129 0,3.78388414 0,2.43755832 C0,1.09280715 1.08762807,0 2.43616113,0 C3.77683561,0 4.86760711,1.09280715 4.86760711,2.43755832 C4.86760711,3.78388414 3.77683561,4.87669129 2.43616113,4.87669129 Z M0.33320397,20.25 L4.53440314,20.25 L4.53440314,6.72375583 L0.33320397,6.72375583 L0.33320397,20.25 Z"></path>
            </g>
        </g>
    </g>
</svg>