<?xml version="1.0" encoding="UTF-8"?>
<svg width="24px" height="24px" viewBox="0 0 24 24" version="1.1" xmlns="http://www.w3.org/2000/svg" xmlns:xlink="http://www.w3.org/1999/xlink">
    <title>06528458-54E6-4C6D-9BB4-B1153F60ACAF</title>
    <g id="📄-Pages" stroke="none" stroke-width="1" fill="none" fill-rule="evenodd">
        <g id="v3-|-WhatsNew-|-Events-|-Detail" transform="translate(-809.000000, -246.000000)">
            <g id="Date-and-Time" transform="translate(545.000000, 215.000000)">
                <g id="icon-time" transform="translate(264.000000, 31.000000)">
                    <rect id="Rectangle" x="0" y="0" width="24" height="24"></rect>
                    <path d="M12,2 C6.4856775,2 2,6.4856775 2,12 C2,17.5143233 6.4856775,22 12,22 C17.5143233,22 22,17.5143233 22,12 C22,6.4856775 17.5143233,2 12,2 Z M12,3.66666667 C16.61263,3.66666667 20.3333333,7.38737 20.3333333,12 C20.3333333,16.61263 16.61263,20.3333333 12,20.3333333 C7.38737,20.3333333 3.66666667,16.61263 3.66666667,12 C3.66666667,7.38737 7.38737,3.66666667 12,3.66666667 Z M10.8,5.79621712 L10.8,13.9 L16.7659174,13.9 L16.7659174,12.2333333 L12.4666667,12.2333333 L12.4666667,5.79621712 L10.8,5.79621712 Z" id="Icon" fill="#0081FF"></path>
                </g>
            </g>
        </g>
    </g>
</svg>