<?xml version="1.0" encoding="UTF-8"?>
<svg width="16px" height="16px" viewBox="0 0 16 16" version="1.1" xmlns="http://www.w3.org/2000/svg" xmlns:xlink="http://www.w3.org/1999/xlink">
    <title>87F5B6C7-24DF-4D23-AE8B-EE2CEDDB34B1</title>
    <g id="📄-Pages" stroke="none" stroke-width="1" fill="none" fill-rule="evenodd">
        <g id="v3-|-WhatsNew-|-Events-|-Detail" transform="translate(-270.000000, -257.000000)" fill="#FFFFFF">
            <g id="Box1-Copy" transform="translate(165.000000, 213.000000)">
                <g id="icon-external" transform="translate(105.000000, 44.000000)">
                    <path d="M6.89372,1.4843 C7.3359,1.4843 7.69372,1.84212 7.69372,2.2843 C7.69372,2.7257 7.3359,3.0843 6.89372,3.0843 C5.50932,3.0843 4.18042,3.6343 3.20152,4.6132 C2.22184,5.593 1.67184,6.92104 1.67184,8.3062 C1.67184,9.6906 2.22184,11.0195 3.20152,11.9984 C4.18052,12.97808 5.50934,13.52808 6.89372,13.52808 C8.27892,13.52808 9.60704,12.97808 10.58672,11.9984 C11.56562,11.0194 12.11562,9.69058 12.11562,8.3062 C12.11562,7.86402 12.47422,7.5062 12.91562,7.5062 C13.3578,7.5062 13.71562,7.86402 13.71562,8.3062 C13.71406,10.1148 12.9953,11.84912 11.7164,13.1288 C10.4376,14.40772 8.70318,15.128038 6.8938,15.1297 C4.45612,15.1297 2.20388,13.8297 0.98512,11.7187 C-0.23364,9.6077 -0.23364,7.0063 0.98512,4.8953 C2.20392,2.7843 4.45612,1.4843 6.89372,1.4843 Z M14.30405,0.0703826633 L14.4111873,0.0746806481 C14.5910227,0.0941988889 14.7601793,0.174383333 14.889736,0.30394 C15.04521,0.4594 15.130366,0.6719 15.124116,0.89222 L15.124116,0.89222 L14.999898,5.33202 C14.988178,5.76482 14.633498,6.11014 14.199898,6.11014 L14.199898,6.11014 L14.178022,6.11014 C13.965522,6.1039 13.764746,6.01406 13.618642,5.86014 C13.472538,5.70622 13.393632,5.49998 13.399882,5.28826 L13.399882,5.28826 L13.4741,2.85786 L7.5359,8.80006 C7.22262,9.11412 6.71402,9.11412 6.39996,8.80006 C6.0859,8.486 6.0859,7.9774 6.39996,7.66412 L6.39996,7.66412 L12.34136,1.73212 L9.91176,1.800088 C9.47034,1.812588 9.10238,1.464148 9.08988,1.021968 C9.07816,0.580548 9.4266,0.212588 9.868,0.200088 L9.868,0.200088 L14.30405,0.0703826633 Z" id="Combined-Shape"></path>
                </g>
            </g>
        </g>
    </g>
</svg>