<?xml version="1.0" encoding="UTF-8"?>
<svg width="64px" height="64px" viewBox="0 0 64 64" version="1.1" xmlns="http://www.w3.org/2000/svg" xmlns:xlink="http://www.w3.org/1999/xlink">
    <title>6F465DE6-B10D-4E8C-B0D5-7A4407556061</title>
    <g id="📄-Pages" stroke="none" stroke-width="1" fill="none" fill-rule="evenodd">
        <g id="v3-|-Guidance-|-Detail" transform="translate(-165.000000, -763.000000)">
            <g id="icon-1" transform="translate(165.000000, 763.000000)">
                <path d="M52,20 C52,31.046 43.046,40 32,40 C20.954,40 12,31.046 12,20 C12,8.954 20.954,0 32,0 C43.046,0 52,8.954 52,20" id="Fill-1" fill="#00EEFF"></path>
                <polygon id="Fill-3" fill="#363F40" points="8 48 29 48 29 46 8 46"></polygon>
                <polygon id="Fill-5" fill="#363F40" points="8 52 29 52 29 50 8 50"></polygon>
                <polygon id="Fill-6" fill="#363F40" points="8 56 29 56 29 54 8 54"></polygon>
                <polygon id="Fill-7" fill="#363F40" points="8 60 30 60 30 58 8 58"></polygon>
                <polygon id="Fill-8" fill="#363F40" points="24 64 16 64 16 59 18 59 18 62 22 62 22 59 24 59"></polygon>
                <path d="M30,59 L28,59 L28,36.403 L28.526,36.12 C34.281,33.019 38,26.692 38,20 C38,10.075 29.925,2 20,2 C10.075,2 2,10.075 2,20 C2,26.708 5.718,33.035 11.472,36.119 L12,36.401 L12,59 L10,59 L10,37.587 C3.906,34.063 0,27.229 0,20 C0,8.972 8.972,0 20,0 C31.028,0 40,8.972 40,20 C40,27.212 36.094,34.047 30,37.586 L30,59 Z" id="Fill-9" fill="#363F40"></path>
                <polygon id="Fill-10" fill="#363F40" points="16 47 18 47 18 37 16 37"></polygon>
                <polygon id="Fill-11" fill="#363F40" points="22 47 24 47 24 37 22 37"></polygon>
                <path d="M20,32 C13.383,32 8,26.617 8,20 C8,13.383 13.383,8 20,8 L20,10 C14.486,10 10,14.486 10,20 C10,25.514 14.486,30 20,30 L20,32 Z" id="Fill-12" fill="#363F40"></path>
                <polygon id="Fill-13" fill="#363F40" points="35 48 56 48 56 46 35 46"></polygon>
                <polygon id="Fill-14" fill="#363F40" points="35 52 56 52 56 50 35 50"></polygon>
                <polygon id="Fill-15" fill="#363F40" points="35 56 56 56 56 54 35 54"></polygon>
                <polygon id="Fill-16" fill="#363F40" points="34 60 56 60 56 58 34 58"></polygon>
                <polygon id="Fill-17" fill="#363F40" points="48 64 40 64 40 59 42 59 42 62 46 62 46 59 48 59"></polygon>
                <path d="M54,59 L52,59 L52,36.403 L52.526,36.12 C58.281,33.019 62,26.692 62,20 C62,10.075 53.925,2 44,2 C34.075,2 26,10.075 26,20 C26,26.708 29.718,33.035 35.472,36.119 L36,36.401 L36,59 L34,59 L34,37.587 C27.906,34.063 24,27.229 24,20 C24,8.972 32.972,0 44,0 C55.028,0 64,8.972 64,20 C64,27.212 60.094,34.047 54,37.586 L54,59 Z" id="Fill-18" fill="#363F40"></path>
                <polygon id="Fill-19" fill="#363F40" points="40 47 42 47 42 37 40 37"></polygon>
                <polygon id="Fill-20" fill="#363F40" points="46 47 48 47 48 37 46 37"></polygon>
                <path d="M44,32 L44,30 C49.514,30 54,25.514 54,20 C54,14.486 49.514,10 44,10 L44,8 C50.617,8 56,13.383 56,20 C56,26.617 50.617,32 44,32" id="Fill-21" fill="#363F40"></path>
                <polygon id="Fill-22" fill="#363F40" points="31 17 33 17 33 15 31 15"></polygon>
                <polygon id="Fill-23" fill="#363F40" points="31 21 33 21 33 19 31 19"></polygon>
                <polygon id="Fill-24" fill="#363F40" points="31 25 33 25 33 23 31 23"></polygon>
            </g>
        </g>
    </g>
</svg>