<?xml version="1.0" encoding="UTF-8"?>
<svg width="24px" height="24px" viewBox="0 0 24 24" version="1.1" xmlns="http://www.w3.org/2000/svg" xmlns:xlink="http://www.w3.org/1999/xlink">
    <title>F270A0C6-B606-4ED0-ACD3-C26343E70E11</title>
    <g id="📄-Pages" stroke="none" stroke-width="1" fill="none" fill-rule="evenodd">
        <g id="v3-|-WhatsNew-|-Events-|-Detail" transform="translate(-574.000000, -246.000000)">
            <g id="Date-and-Time" transform="translate(545.000000, 215.000000)">
                <g id="icon-date" transform="translate(29.000000, 31.000000)">
                    <rect id="Rectangle" x="0" y="0" width="24" height="24"></rect>
                    <path d="M7.75,2 L7.75,4.25 L16.25,4.25 L16.25,2 L17.75,2 L17.75,4.25 L21.75,4.25 L21.75,21.75 L2.25,21.75 L2.25,4.25 L6.25,4.25 L6.25,2 L7.75,2 Z M20.25,10.75 L3.75,10.75 L3.75,20.25 L20.25,20.25 L20.25,10.75 Z M6.25,5.75 L3.75,5.75 L3.75,9.25 L20.25,9.25 L20.25,5.75 L17.75,5.75 L17.75,8 L16.25,8 L16.25,5.75 L7.75,5.75 L7.75,8 L6.25,8 L6.25,5.75 Z" fill="#0081FF"></path>
                </g>
            </g>
        </g>
    </g>
</svg>