<?xml version="1.0" encoding="UTF-8"?>
<svg width="24px" height="24px" viewBox="0 0 24 24" version="1.1" xmlns="http://www.w3.org/2000/svg" xmlns:xlink="http://www.w3.org/1999/xlink">
    <title>349669A3-C735-4B16-92DC-C001DD1A3686</title>
    <g id="📄-Pages" stroke="none" stroke-width="1" fill="none" fill-rule="evenodd">
        <g id="v3-|-WhatsNew-|-Events-|-Detail" transform="translate(-187.000000, -385.000000)">
            <g id="Location" transform="translate(165.000000, 349.000000)">
                <g id="icon-mapsmall" transform="translate(22.000000, 36.000000)">
                    <rect id="Rectangle" x="0" y="0" width="24" height="24"></rect>
                    <path d="M12.4995723,1.25 C17.0515697,1.25 20.75,4.84445329 20.75,9.2893058 C20.75,10.3806157 20.5264339,11.4421855 20.0981899,12.4259356 C19.9668401,12.7276684 19.7810312,13.0847269 19.545403,13.4922477 L19.2933404,13.9164093 L19.009096,14.3731317 L18.6937009,14.8613343 L18.3481864,15.3799363 L17.9735833,15.927857 L17.5709229,16.5040158 L17.1412362,17.1073317 L16.4482873,18.0608615 L15.7003291,19.0694161 L15.3662804,19.5141525 L14.5456721,20.5933031 C14.4108212,20.769165 14.2771754,20.942747 14.1451047,21.1136264 L13.4170439,22.0488003 L12.5004712,23.2049405 L11.6149708,22.0885458 L10.8299736,21.0804281 C10.2200439,20.2909208 9.60804546,19.4852364 9.01560543,18.6879363 L8.43048588,17.8943407 L7.84263617,17.0828929 L7.1756847,16.1404142 L6.77039547,15.5524609 L6.39772849,14.9979182 C6.33839043,14.9083319 6.28045256,14.8201775 6.22393535,14.7334752 L5.9020438,14.2308447 L5.61523057,13.7640198 C5.57040614,13.6892527 5.52708424,13.6160175 5.48528534,13.544334 L5.25293166,13.1330141 C5.11043152,12.8714281 4.99295432,12.6353094 4.90180996,12.4259353 C4.47356608,11.4421855 4.25,10.3806157 4.25,9.2893058 C4.25,4.84459478 7.94828371,1.25 12.4995723,1.25 Z M12.4995723,2.75 C8.7673148,2.75 5.75,5.68271822 5.75,9.2893058 C5.75,10.1734274 5.93067047,11.0313139 6.2771456,11.8272268 C6.37168609,12.0444023 6.50485224,12.3040102 6.67370232,12.6023106 L6.89326242,12.9786041 L7.14594945,13.3906063 L7.43063379,13.8368811 L7.74618582,14.3159924 L8.09147589,14.8265042 C8.15143965,14.9141264 8.21259543,15.0029971 8.27491969,15.0930864 L8.6626988,15.6480061 L9.29447816,16.5320809 L9.64240987,17.0104649 C10.2121142,17.7894698 10.8097375,18.5868114 11.4128687,19.3768027 L12.5,20.785 L12.9582236,20.1963953 L13.7591193,19.1518213 L14.5001385,18.1696713 L15.1962679,17.2312618 L15.8446085,16.3403537 L16.2483931,15.7751162 L16.6280982,15.2344577 L17.150022,14.4725895 L17.4645585,13.9994464 L17.7510397,13.5557364 L18.0083295,13.1428466 L18.2352918,12.7621639 C18.2705285,12.7014777 18.3044541,12.6421913 18.3370452,12.5843336 L18.5163864,12.2545619 L18.6625602,11.9604645 C18.6840954,11.9144982 18.7042013,11.8700761 18.7228543,11.8272271 C19.0693295,11.0313139 19.25,10.1734274 19.25,9.2893058 C19.25,5.68260406 16.2325643,2.75 12.4995723,2.75 Z M12.5004277,4.92255224 C14.7591867,4.92255224 16.5996614,6.71110778 16.5996614,8.9278818 C16.5996614,11.1449116 14.7597762,12.9332114 12.5004277,12.9332114 C10.241081,12.9332114 8.40119627,11.1449112 8.40119627,8.9278818 C8.40119627,6.71085095 10.2410803,4.92255224 12.5004277,4.92255224 Z M12.5004277,6.42255224 C11.0601113,6.42255224 9.90119627,7.54897447 9.90119627,8.9278818 C9.90119627,10.3067878 11.0601122,11.4332114 12.5004277,11.4332114 C13.9407452,11.4332114 15.0996614,10.3067881 15.0996614,8.9278818 C15.0996614,7.54929268 13.9402133,6.42255224 12.5004277,6.42255224 Z" id="Fill-1" fill="#0081FF"></path>
                </g>
            </g>
        </g>
    </g>
</svg>