<?xml version="1.0" encoding="UTF-8"?>
<svg width="20px" height="20px" viewBox="0 0 20 20" version="1.1" xmlns="http://www.w3.org/2000/svg" xmlns:xlink="http://www.w3.org/1999/xlink">
    <title>870B1C57-E1CD-4602-AF7F-E8E09BC263A0@2x</title>
    <g id="📄-Pages" stroke="none" stroke-width="1" fill="none" fill-rule="evenodd">
        <g id="v3-|-Team-|-Detail" transform="translate(-356.000000, -695.000000)">
            <rect fill="#FFFFFF" x="0" y="0" width="1440" height="2516"></rect>
            <g id="WYSIWYG" transform="translate(356.000000, 521.000000)">
                <g id="Group-4" transform="translate(0.000000, 133.000000)"></g>
            </g>
            <g id="icon-twitter" transform="translate(356.000000, 695.000000)" fill="#00132F">
                <path d="M18.75,18.75 L15.2542398,18.75 L15.2542398,13.2675933 C15.2542398,11.9606337 15.230664,10.2796948 13.4362873,10.2796948 C11.6183348,10.2796948 11.3406648,11.7047531 11.3406648,13.1744265 L11.3406648,18.75 L7.84752406,18.75 L7.84752406,7.47812986 L11.1979005,7.47812986 L11.1979005,9.01866252 L11.2463618,9.01866252 C11.7139475,8.13292185 12.8534423,7.19862947 14.5548258,7.19862947 C18.0964277,7.19862947 18.75,9.531736 18.75,12.5681862 L18.75,18.75 Z M3.90513428,5.93890941 C2.78135672,5.93890941 1.875,5.02823678 1.875,3.9062986 C1.875,2.78567263 2.78135672,1.875 3.90513428,1.875 C5.02236301,1.875 5.93133926,2.78567263 5.93133926,3.9062986 C5.93133926,5.02823678 5.02236301,5.93890941 3.90513428,5.93890941 Z M2.15266998,18.75 L5.65366928,18.75 L5.65366928,7.47812986 L2.15266998,7.47812986 L2.15266998,18.75 Z" id="Icon"></path>
            </g>
        </g>
    </g>
</svg>