<?xml version="1.0" encoding="UTF-8"?>
<svg width="16px" height="16px" viewBox="0 0 16 16" version="1.1" xmlns="http://www.w3.org/2000/svg" xmlns:xlink="http://www.w3.org/1999/xlink">
    <title>A5E353C5-C33D-4A3B-A980-6AA1B792557F@2x</title>
    <g id="📄-Pages" stroke="none" stroke-width="1" fill="none" fill-rule="evenodd">
        <g id="v3-|-Homepage-|-Listing" transform="translate(-1259.000000, -42.000000)">
            <rect fill="#FFFFFF" x="0" y="0" width="1440" height="3627"></rect>
            <g id="UI-/-Nav" fill="#00132F" fill-rule="nonzero">
                <g id="icon-search" transform="translate(1259.000000, 42.000000)">
                    <path d="M7,2 C9.76142375,2 12,4.23857625 12,7 C12,8.01910722 11.6951083,8.96700318 11.1715651,9.75744781 L14.7071068,13.2928932 L13.2928932,14.7071068 L9.75744781,11.1715651 C8.96700318,11.6951083 8.01910722,12 7,12 C4.23857625,12 2,9.76142375 2,7 C2,4.23857625 4.23857625,2 7,2 Z M7,4 C5.34314575,4 4,5.34314575 4,7 C4,8.65685425 5.34314575,10 7,10 C8.65685425,10 10,8.65685425 10,7 C10,5.34314575 8.65685425,4 7,4 Z"></path>
                </g>
            </g>
        </g>
    </g>
</svg>